# xmcd CD database file
#
# Track frame offsets:
#	150
#	32475
#	50400
#	70575
#	86438
#	107775
#	129188
#	151950
#	166800
#	184950
#	201525
#	217125
#
# Disc length: 3151 seconds
#
# Revision: 0
# Processed by: cddbd v1.4PL0 Copyright (c) Steve Scherf et al.
# Submitted via: CDex 1.50
#
DISCID=a20c4d0c
DTITLE=Spyro Gyra - Greatest Hits
DYEAR=1994
DGENRE=Jazz
TTITLE0=Shaker Song
TTITLE1=Morning Dance
TTITLE2=It Doesn't Matter
TTITLE3=String Soup
TTITLE4=Catching The Sun
TTITLE5=Lovin' You
TTITLE6=Cafe Amore
TTITLE7=Cascade
TTITLE8=Song For Lorraine
TTITLE9=What Exit
TTITLE10=You Can Count On Me
TTITLE11=Last Exit
EXTD=YEAR: 1994
EXTT0=
EXTT1=
EXTT2=
EXTT3=
EXTT4=
EXTT5=
EXTT6=
EXTT7=
EXTT8=
EXTT9=
EXTT10=
EXTT11=
PLAYORDER=
